<?xml version="1.0" encoding="UTF-8"?>
<svg xmlns="http://www.w3.org/2000/svg" xmlns:xlink="http://www.w3.org/1999/xlink" width="200px" height="200px" viewBox="0 0 200 228" version="1.1">
<g id="surface1">
<path style=" stroke:none;fill-rule:nonzero;fill:rgb(0%,0%,0%);fill-opacity:1;" d="M 0 42.75 C 0 34.882812 6.398438 28.5 14.285156 28.5 L 185.714844 28.5 C 193.617188 28.5 200 34.882812 200 42.75 C 200 50.632812 193.617188 57 185.714844 57 L 14.285156 57 C 6.398438 57 0 50.632812 0 42.75 Z M 0 114 C 0 106.117188 6.398438 99.75 14.285156 99.75 L 185.714844 99.75 C 193.617188 99.75 200 106.117188 200 114 C 200 121.882812 193.617188 128.25 185.714844 128.25 L 14.285156 128.25 C 6.398438 128.25 0 121.882812 0 114 Z M 185.714844 199.5 L 14.285156 199.5 C 6.398438 199.5 0 193.132812 0 185.25 C 0 177.367188 6.398438 171 14.285156 171 L 185.714844 171 C 193.617188 171 200 177.367188 200 185.25 C 200 193.132812 193.617188 199.5 185.714844 199.5 Z M 185.714844 199.5 "/>
</g>
</svg>
