<?xml version="1.0" encoding="UTF-8"?>
<svg xmlns="http://www.w3.org/2000/svg" xmlns:xlink="http://www.w3.org/1999/xlink" width="200px" height="200px" viewBox="0 0 200 320" version="1.1">
<g id="surface1">
<path style=" stroke:none;fill-rule:nonzero;fill:rgb(0%,0%,0%);fill-opacity:1;" d="M 194.125 225.875 C 201.9375 233.6875 201.9375 246.34375 194.125 254.15625 C 190.25 258.0625 185.125 260 180 260 C 174.875 260 169.761719 258.046875 165.863281 254.140625 L 100 188.3125 L 34.144531 254.125 C 30.238281 258.0625 25.117188 260 20 260 C 14.882812 260 9.769531 258.0625 5.859375 254.125 C -1.953125 246.3125 -1.953125 233.65625 5.859375 225.84375 L 71.734375 159.96875 L 5.859375 94.125 C -1.953125 86.3125 -1.953125 73.65625 5.859375 65.84375 C 13.671875 58.03125 26.328125 58.03125 34.140625 65.84375 L 100 131.75 L 165.875 65.875 C 173.6875 58.0625 186.34375 58.0625 194.15625 65.875 C 201.96875 73.6875 201.96875 86.34375 194.15625 94.15625 L 128.28125 160.03125 Z M 194.125 225.875 "/>
</g>
</svg>
